<svg xmlns="http://www.w3.org/2000/svg" viewBox="0 0 325.95 170.87"><defs><style>.cls-1{fill:#fff;}</style></defs><title>Ресурс 5</title><g id="Слой_2" data-name="Слой 2"><g id="icons"><g id="icons-2" data-name="icons"><path class="cls-1" d="M89.48,26.77a9.58,9.58,0,0,0-10.06.48l-75,50a9.8,9.8,0,0,0,0,16.32l75,50a9.8,9.8,0,0,0,15.21-8.17V124.85a9.54,9.54,0,0,0-4.35-8.15L43.48,85.43l46.8-31.24A9.56,9.56,0,0,0,94.63,46V35.46A9.58,9.58,0,0,0,89.48,26.77Z"/><path class="cls-1" d="M185.19,0H171a9.73,9.73,0,0,0-9.63,7.89L136.91,130.15l-5.8,29a9.8,9.8,0,0,0,9.63,11.73h14.21a9.73,9.73,0,0,0,9.63-7.89L189.06,40.72l5.8-29A9.8,9.8,0,0,0,185.23,0Z"/><path class="cls-1" d="M321.6,77.26l-75-50a9.8,9.8,0,0,0-15.21,8.17v10.6a9.54,9.54,0,0,0,4.35,8.17l46.78,31.2-46.8,31.24a9.54,9.54,0,0,0-4.35,8.15v10.58a9.8,9.8,0,0,0,15.21,8.17l75-50a9.8,9.8,0,0,0,0-16.32Z"/></g></g></g></svg>