<svg xmlns="http://www.w3.org/2000/svg" viewBox="0 0 195 130"><defs><style>.cls-1{fill:#fff;}</style></defs><title>Ресурс 1</title><g id="Слой_2" data-name="Слой 2"><g id="Слой_2-2" data-name="Слой 2"><path class="cls-1" d="M10.83,130H184.17A10.83,10.83,0,0,0,195,119.17h0a10.83,10.83,0,0,0-10.83-10.83H10.83A10.83,10.83,0,0,0,0,119.17H0A10.83,10.83,0,0,0,10.83,130Zm0-54.17H184.17A10.83,10.83,0,0,0,195,65h0a10.83,10.83,0,0,0-10.83-10.83H10.83A10.83,10.83,0,0,0,0,65H0A10.83,10.83,0,0,0,10.83,75.83ZM0,10.83H0A10.83,10.83,0,0,0,10.83,21.67H184.17A10.83,10.83,0,0,0,195,10.83h0A10.83,10.83,0,0,0,184.17,0H10.83A10.83,10.83,0,0,0,0,10.83Z"/></g></g></svg>