<svg xmlns="http://www.w3.org/2000/svg" viewBox="0 0 250 250"><defs><style>.cls-1{fill:#091c54;}</style></defs><title>home_icon</title><g id="icons"><g id="border_circle"><path class="cls-1" d="M125,7a118,118,0,0,1,83.44,201.44A118,118,0,0,1,41.56,41.56,117.22,117.22,0,0,1,125,7m0-7A125,125,0,1,0,250,125,125,125,0,0,0,125,0Z"/></g><g id="home"><path class="cls-1" d="M159,130.27q-11.46-9.41-22.89-18.85-5.74-4.74-11.49-9.5c-.46-.38-.79-.44-1.23,0s-1,.8-1.45,1.2Q105.51,116.7,89,130.26a1.82,1.82,0,0,0-.74,1.59q0,14.25,0,28.51c0,2.94,1.62,4.56,4.56,4.56,7.43,0,14.85,0,22.28,0,.78,0,.94-.24.94-1,0-7.23,0-14.47,0-21.7V141.2H132v23.67c.29,0,.51,0,.72,0q11.34,0,22.69,0a4,4,0,0,0,4.32-4.38c0-9.59,0-19.17,0-28.76A1.76,1.76,0,0,0,159,130.27Z"/><path class="cls-1" d="M173.23,124.08c-.26-.25-.54-.47-.81-.69q-6-5-12.1-10a1.49,1.49,0,0,1-.6-1.31c0-8,0-15.89,0-23.84,0-2-.67-2.65-2.66-2.65H146.51c-2,0-2.65.67-2.65,2.66V99.6l-.81-.64L129,87.2a7.61,7.61,0,0,0-5.78-1.76,8.81,8.81,0,0,0-5,2.44q-10.74,9-21.51,17.93L75.19,123.74c-1.43,1.19-1.51,2.2-.32,3.63,1,1.22,2,2.42,3,3.64,1.21,1.45,2.23,1.54,3.7.32L113.19,105,124,96l1.83,1.51,29,24.18q5.88,4.91,11.77,9.8c1.14.94,2.22,1,3.12,0q2-2.2,3.79-4.52A2,2,0,0,0,173.23,124.08Z"/></g></g></svg>