<svg xmlns="http://www.w3.org/2000/svg" viewBox="0 0 250 250"><defs><style>.cls-1{fill:#091c54;}</style></defs><title>web_icons</title><g id="icons"><g id="border_circle"><path class="cls-1" d="M125,7a118,118,0,0,1,83.44,201.44A118,118,0,0,1,41.56,41.56,117.22,117.22,0,0,1,125,7m0-7A125,125,0,1,0,250,125,125,125,0,0,0,125,0Z"/></g><path class="cls-1" d="M124.5,124.74a4.76,4.76,0,0,1-1.74-.33L76.58,106V99.11a4.7,4.7,0,0,1,4.69-4.69h86.46a4.7,4.7,0,0,1,4.69,4.69V106l-46.18,18.41A4.76,4.76,0,0,1,124.5,124.74ZM79.19,104.23,123.73,122a2.05,2.05,0,0,0,1.54,0l44.54-17.75V99.11A2.08,2.08,0,0,0,167.73,97H81.27a2.08,2.08,0,0,0-2.08,2.08Z"/><path class="cls-1" d="M124.5,126.17a6,6,0,0,1-2.26-.44L75.16,107V99.11A6.12,6.12,0,0,1,81.27,93h86.46a6.12,6.12,0,0,1,6.11,6.11V107l-47.08,18.77A6,6,0,0,1,124.5,126.17ZM80.62,103.26l43.64,17.4a.66.66,0,0,0,.48,0l43.64-17.4V99.11a.65.65,0,0,0-.65-.65H81.27a.65.65,0,0,0-.65.65Z"/><path class="cls-1" d="M167.73,155.58H81.27a4.7,4.7,0,0,1-4.69-4.69V112.27l2.61,1.11v37.51A2.08,2.08,0,0,0,81.27,153h86.46a2.08,2.08,0,0,0,2.08-2.08V113.38l2.61-1.11v38.62A4.7,4.7,0,0,1,167.73,155.58Z"/><path class="cls-1" d="M167.73,157H81.27a6.12,6.12,0,0,1-6.11-6.11V110.11l5.46,2.34v38.44a.65.65,0,0,0,.65.65h86.46a.65.65,0,0,0,.65-.65V112.45l5.46-2.34v40.78A6.12,6.12,0,0,1,167.73,157Z"/></g></svg>