<svg xmlns="http://www.w3.org/2000/svg" viewBox="0 0 250 250"><defs><style>.cls-1{fill:#091c54;}</style></defs><title>asd</title><g id="icons"><g id="border_circle"><path class="cls-1" d="M125,7a118,118,0,0,1,83.44,201.44A118,118,0,0,1,41.56,41.56,117.22,117.22,0,0,1,125,7m0-7A125,125,0,1,0,250,125,125,125,0,0,0,125,0Z"/></g><circle class="cls-1" cx="123.66" cy="109" r="23.25"/><path class="cls-1" d="M123.67,172.67a49,49,0,1,1,38.09-18.2l-.22.28h0A48.76,48.76,0,0,1,123.67,172.67Zm21.69-46a43.33,43.33,0,0,1,17.57,19.87l.8,1.85,1-1.76a46.11,46.11,0,0,0,5.95-22.92,47,47,0,1,0-88,22.9l1,1.77.8-1.86A43.19,43.19,0,0,1,102,126.64a28,28,0,0,0,43.39,0Z"/><path class="cls-1" d="M171.67,123.67v0m-96,0v0m0,0v0m96,0h0m-96,0v0m96,0h0m-96,0v0m0,.05a48.31,48.31,0,0,0,4,19,48.23,48.23,0,0,1-4-19m69.9,4.14a42.23,42.23,0,0,1,16.44,19l1.52,3.51c-.79,1.17-1.64,2.32-2.54,3.43l-.32.39a48,48,0,0,1-74.33-.37c-.9-1.11-1.75-2.26-2.54-3.45l1.53-3.53a42.19,42.19,0,0,1,16.43-18.94,28.94,28.94,0,0,0,43.81,0m21,17.26c-.36.71-.74,1.42-1.14,2.11l.13-.22c.35-.62.69-1.25,1-1.89M123.67,73.67a50,50,0,1,0,38.87,81.44h0a50,50,0,0,0-38.87-81.43ZM83.5,146.09a46,46,0,1,1,86.17-22.42,45.41,45.41,0,0,1-5.83,22.43,44,44,0,0,0-18.73-20.76,27,27,0,0,1-42.89,0A44,44,0,0,0,83.5,146.09Z"/></g></svg>