<svg xmlns="http://www.w3.org/2000/svg" viewBox="0 0 250 250"><defs><style>.cls-1{fill:#091c54;}</style></defs><title>search_icon</title><g id="icons"><g id="border_circle"><path class="cls-1" d="M125,7a118,118,0,0,1,83.44,201.44A118,118,0,0,1,41.56,41.56,117.22,117.22,0,0,1,125,7m0-7A125,125,0,1,0,250,125,125,125,0,0,0,125,0Z"/></g><path class="cls-1" d="M115.48,82.32a33.16,33.16,0,1,1-33.16,33.16,33.2,33.2,0,0,1,33.16-33.16m0-6.32A39.48,39.48,0,1,0,155,115.48,39.48,39.48,0,0,0,115.48,76Z"/><path class="cls-1" d="M172.59,164.21,150,141.57a1.88,1.88,0,0,0-2.77.13,39.42,39.42,0,0,1-5.48,5.48,1.88,1.88,0,0,0-.13,2.77l22.82,22.82a5.93,5.93,0,0,0,8.25.12A6.12,6.12,0,0,0,172.59,164.21Z"/><path class="cls-1" d="M139.33,102.85a2,2,0,0,1-1.69-1l-.08-.14a2,2,0,0,1,.33-2.6,2,2,0,0,1,3,.46l.11.17a2,2,0,0,1-.27,2.51A2,2,0,0,1,139.33,102.85Z"/><path class="cls-1" d="M133.14,95.65a2,2,0,0,1-1.26-.45,26.09,26.09,0,0,0-16.46-6,2.07,2.07,0,0,1-2.08-1.64,2,2,0,0,1,1.94-2.31,30,30,0,0,1,19.07,6.84,2,2,0,0,1,.53,2.49A2,2,0,0,1,133.14,95.65Z"/></g></svg>