<svg xmlns="http://www.w3.org/2000/svg" viewBox="0 0 219.48799 235.6499"><defs><style>.cls-1{fill:none;}.cls-1,.cls-2{stroke:#fff;stroke-miterlimit:10;}.cls-2{fill:#fff;stroke-width:0.25px;}</style></defs><title>Ресурс 51</title><g id="Слой_2" data-name="Слой 2"><g id="Слой_2-2" data-name="Слой 2"><circle class="cls-1" cx="109.74393" cy="117.82486" r="107.96102"/><path class="cls-2" d="M126.52938,1.31909a118.57377,118.57377,0,0,0-33.5708,0,4.56713,4.56713,0,0,0-3.29016,2.25025L84.284,12.89478a108.47973,108.47973,0,0,1,50.92,0l-5.38446-9.32544A4.56725,4.56725,0,0,0,126.52938,1.31909Z"/><path class="cls-2" d="M6.13393,148.25488.74789,157.583A4.57008,4.57008,0,0,0,.44173,161.554,115.47115,115.47115,0,0,0,7.804,176.68481a116.99965,116.99965,0,0,0,9.45642,13.94068,4.56872,4.56872,0,0,0,3.59057,1.71924H31.62392A108.1632,108.1632,0,0,1,16.234,171.81494,106.701,106.701,0,0,1,6.13393,148.25488Z"/><path class="cls-2" d="M213.3539,148.26489a107.92994,107.92994,0,0,1-25.49,44.07984h10.783a4.56874,4.56874,0,0,0,3.59058-1.71924,117.34714,117.34714,0,0,0,16.80731-29.061,4.56962,4.56962,0,0,0-.30536-3.97241Z"/><path class="cls-2" d="M84.284,222.75488l5.38446,9.3252a4.56687,4.56687,0,0,0,3.29022,2.25049,118.54976,118.54976,0,0,0,33.57074,0,4.567,4.567,0,0,0,3.29022-2.25049l5.3844-9.3252a108.48809,108.48809,0,0,1-50.92,0Z"/><path class="cls-2" d="M213.354,87.39478l5.3861-9.32813a4.57,4.57,0,0,0,.3061-3.971A115.47908,115.47908,0,0,0,211.684,58.96484a117.04591,117.04591,0,0,0-9.45636-13.94067,4.56989,4.56989,0,0,0-3.59064-1.71948H187.864a108.17242,108.17242,0,0,1,15.38989,20.53A106.70081,106.70081,0,0,1,213.354,87.39478Z"/><path class="cls-2" d="M17.25051,45.02417A117.34665,117.34665,0,0,0,.4432,74.08521a4.56963,4.56963,0,0,0,.30542,3.97241l5.38543,9.32715a107.933,107.933,0,0,1,25.49-44.08008H20.84115A4.56982,4.56982,0,0,0,17.25051,45.02417Z"/></g></g></svg>