<svg xmlns="http://www.w3.org/2000/svg" viewBox="0 0 215.92205 215.92205"><defs><style>.cls-1,.cls-2{fill:none;}.cls-1{stroke:#fff;stroke-miterlimit:10;}.cls-1,.cls-3{opacity:0.35;}.cls-4{fill:#fff;}</style></defs><title>Ресурс 58</title><g id="Слой_2" data-name="Слой 2"><g id="Слой_2-2" data-name="Слой 2"><circle class="cls-1" cx="107.96109" cy="107.96102" r="59.35083"/><circle class="cls-2" cx="107.96102" cy="107.96102" r="107.96102"/><g class="cls-3"><path class="cls-4" d="M176.45955,132.89837l-5.4173-1.97607a1.74675,1.74675,0,0,0-2.22473,1.02588,65.14529,65.14529,0,0,1-9.60907,16.78467,1.74671,1.74671,0,0,0,.2326,2.42749l4.42164,3.71069a1.73949,1.73949,0,0,0,2.47686-.23608,74.51615,74.51615,0,0,0,11.15808-19.48609A1.741,1.741,0,0,0,176.45955,132.89837Z"/><path class="cls-4" d="M47.11439,131.94745a1.747,1.747,0,0,0-2.22418-1.02588l-5.42682,1.97729a1.74082,1.74082,0,0,0-1.03869,2.25073A74.51735,74.51735,0,0,0,49.5826,154.635a1.73942,1.73942,0,0,0,2.4768.23608l4.42285-3.71167a1.74673,1.74673,0,0,0,.23371-2.42627A65.32324,65.32324,0,0,1,47.11439,131.94745Z"/><path class="cls-4" d="M119.09486,34.61761a75.39045,75.39045,0,0,0-22.26757,0A1.7387,1.7387,0,0,0,95.38875,36.644l1.00445,5.6897a1.747,1.747,0,0,0,1.989,1.41479,66.12121,66.12121,0,0,1,19.15765,0,1.747,1.747,0,0,0,1.98908-1.41479l1.00445-5.6897A1.73879,1.73879,0,0,0,119.09486,34.61761Z"/></g></g></g></svg>