<svg xmlns="http://www.w3.org/2000/svg" xmlns:xlink="http://www.w3.org/1999/xlink" viewBox="0 0 250 250"><defs><style>.cls-1{fill:url(#Безымянный_градиент_75);}.cls-2{fill:url(#Безымянный_градиент_75-2);}.cls-3{fill:url(#Безымянный_градиент_75-3);}</style><linearGradient id="Безымянный_градиент_75" x1="225.28" y1="200.76" x2="20.78" y2="46.26" gradientUnits="userSpaceOnUse"><stop offset="0" stop-color="#26005e"/><stop offset="0.13" stop-color="#30005e"/><stop offset="0.34" stop-color="#4c005f"/><stop offset="0.62" stop-color="#790060"/><stop offset="0.95" stop-color="#b60062"/><stop offset="1" stop-color="#c00062"/></linearGradient><linearGradient id="Безымянный_градиент_75-2" x1="157.28" y1="177.28" x2="87.28" y2="110.78" xlink:href="#Безымянный_градиент_75"/><linearGradient id="Безымянный_градиент_75-3" x1="173.74" y1="159.94" x2="103.74" y2="93.44" xlink:href="#Безымянный_градиент_75"/></defs><title>home</title><g id="icons"><path class="cls-1" d="M125,7a118,118,0,0,1,83.44,201.44A118,118,0,0,1,41.56,41.56,117.22,117.22,0,0,1,125,7m0-7A125,125,0,1,0,250,125,125,125,0,0,0,125,0Z"/><g id="home"><path class="cls-2" d="M160,130.1l-22.88-18.86c-3.83-3.16-7.67-6.31-11.49-9.49-.46-.38-.79-.44-1.23,0s-1,.81-1.45,1.21Q106.49,116.53,90,130.08a1.84,1.84,0,0,0-.74,1.6q0,14.25,0,28.51c0,2.94,1.62,4.56,4.56,4.56,7.43,0,14.85,0,22.28,0,.78,0,.94-.24.94-1,0-7.23,0-14.47,0-21.71V141H133V164.7c.3,0,.52.05.73.05h22.69a4.06,4.06,0,0,0,4.32-4.39q0-14.37,0-28.75A1.71,1.71,0,0,0,160,130.1Z"/><path class="cls-3" d="M174.21,123.9c-.26-.24-.54-.46-.81-.69q-6-5-12.1-10a1.52,1.52,0,0,1-.6-1.32c0-7.94,0-15.89,0-23.83,0-2-.67-2.65-2.66-2.65H147.48c-2,0-2.64.66-2.64,2.65,0,3.47,0,6.94,0,10.41v1l-.81-.64L130,87a7.62,7.62,0,0,0-5.78-1.77,8.89,8.89,0,0,0-5,2.45q-10.74,9-21.51,17.93L76.17,123.57c-1.43,1.19-1.51,2.2-.32,3.62,1,1.22,2,2.43,3.05,3.65,1.21,1.45,2.23,1.54,3.69.32l31.58-26.33,10.82-9,1.83,1.51,29,24.18q5.88,4.9,11.77,9.8c1.13.94,2.22,1,3.12,0q2-2.21,3.78-4.52A2,2,0,0,0,174.21,123.9Z"/></g></g></svg>