<svg xmlns="http://www.w3.org/2000/svg" xmlns:xlink="http://www.w3.org/1999/xlink" viewBox="0 0 250 250"><defs><style>.cls-1{fill:url(#Безымянный_градиент_75);}.cls-2{fill:url(#Безымянный_градиент_76);}.cls-3{fill:url(#Безымянный_градиент_76-2);}.cls-4{fill:url(#Безымянный_градиент_76-3);}.cls-5{fill:url(#Безымянный_градиент_76-4);}</style><linearGradient id="Безымянный_градиент_75" x1="225.28" y1="200.76" x2="20.78" y2="46.26" gradientUnits="userSpaceOnUse"><stop offset="0" stop-color="#26005e"/><stop offset="0.13" stop-color="#30005e"/><stop offset="0.34" stop-color="#4c005f"/><stop offset="0.62" stop-color="#790060"/><stop offset="0.95" stop-color="#b60062"/><stop offset="1" stop-color="#c00062"/></linearGradient><linearGradient id="Безымянный_градиент_76" x1="85.28" y1="76.64" x2="187.78" y2="140.14" gradientUnits="userSpaceOnUse"><stop offset="0" stop-color="#c00062"/><stop offset="0.05" stop-color="#b60062"/><stop offset="0.38" stop-color="#790060"/><stop offset="0.66" stop-color="#4c005f"/><stop offset="0.87" stop-color="#30005e"/><stop offset="1" stop-color="#26005e"/></linearGradient><linearGradient id="Безымянный_градиент_76-2" x1="85.24" y1="76.7" x2="187.74" y2="140.2" xlink:href="#Безымянный_градиент_76"/><linearGradient id="Безымянный_градиент_76-3" x1="71.12" y1="99.5" x2="173.62" y2="163" xlink:href="#Безымянный_градиент_76"/><linearGradient id="Безымянный_градиент_76-4" x1="71.42" y1="99.01" x2="173.92" y2="162.51" xlink:href="#Безымянный_градиент_76"/></defs><title>mess</title><g id="icons"><path class="cls-1" d="M125,7a118,118,0,0,1,83.44,201.44A118,118,0,0,1,41.56,41.56,117.22,117.22,0,0,1,125,7m0-7A125,125,0,1,0,250,125,125,125,0,0,0,125,0Z"/><path class="cls-2" d="M125,124.74a4.76,4.76,0,0,1-1.74-.33L77.08,106V99.11a4.7,4.7,0,0,1,4.69-4.69h86.46a4.7,4.7,0,0,1,4.69,4.69V106l-46.18,18.41A4.76,4.76,0,0,1,125,124.74ZM79.69,104.23,124.23,122a2.05,2.05,0,0,0,1.54,0l44.54-17.75V99.11A2.08,2.08,0,0,0,168.23,97H81.77a2.08,2.08,0,0,0-2.08,2.08Z"/><path class="cls-3" d="M125,126.17a6,6,0,0,1-2.26-.44L75.66,107V99.11A6.12,6.12,0,0,1,81.77,93h86.46a6.12,6.12,0,0,1,6.11,6.11V107l-47.08,18.77A6,6,0,0,1,125,126.17ZM81.12,103.26l43.64,17.4a.66.66,0,0,0,.48,0l43.64-17.4V99.11a.65.65,0,0,0-.65-.65H81.77a.65.65,0,0,0-.65.65Z"/><path class="cls-4" d="M168.23,155.58H81.77a4.7,4.7,0,0,1-4.69-4.69V112.27l2.61,1.11v37.51A2.08,2.08,0,0,0,81.77,153h86.46a2.08,2.08,0,0,0,2.08-2.08V113.38l2.61-1.11v38.62A4.7,4.7,0,0,1,168.23,155.58Z"/><path class="cls-5" d="M168.23,157H81.77a6.12,6.12,0,0,1-6.11-6.11V110.11l5.46,2.34v38.44a.65.65,0,0,0,.65.65h86.46a.65.65,0,0,0,.65-.65V112.45l5.46-2.34v40.78A6.12,6.12,0,0,1,168.23,157Z"/></g></svg>