<svg xmlns="http://www.w3.org/2000/svg" viewBox="0 0 150 150"><defs><style>.cls-1{fill:#fff;}.cls-2{fill:none;}</style></defs><title>m1</title><g id="Слой_2" data-name="Слой 2"><g id="Слой_2-2" data-name="Слой 2"><path class="cls-1" d="M104.17,58.49h0a6,6,0,0,0-2.2-2.16L78,42.78a6.15,6.15,0,0,0-6,0L48.05,56.32a6,6,0,0,0-2.21,2.17h0a5.89,5.89,0,0,0-.81,3V88.54a5.92,5.92,0,0,0,3,5.14l24,13.54a6.11,6.11,0,0,0,6,0L102,93.68a5.91,5.91,0,0,0,3-5.14V61.46A5.87,5.87,0,0,0,104.17,58.49ZM73,105.48,49,91.94a3.92,3.92,0,0,1-2-3.4V61.46a3.75,3.75,0,0,1,.15-1.05L74,75.58v30.31A4.18,4.18,0,0,1,73,105.48Zm2-31.63L48.2,58.69a4,4,0,0,1,.84-.63L73,44.52a4.15,4.15,0,0,1,4,0l24,13.54a4,4,0,0,1,.84.63Zm28,14.69a3.92,3.92,0,0,1-2,3.4L77,105.48a4.45,4.45,0,0,1-1,.41V75.58l26.83-15.17a3.75,3.75,0,0,1,.15,1.05Z"/><rect class="cls-2" width="150" height="150"/></g></g></svg>