<svg xmlns="http://www.w3.org/2000/svg" viewBox="0 0 150 150"><defs><style>.cls-1{fill:#fff;}.cls-2{fill:none;}</style></defs><title>m2</title><g id="Слой_2" data-name="Слой 2"><g id="Слой_2-2" data-name="Слой 2"><path class="cls-1" d="M98,57.42,92.58,52a3.17,3.17,0,0,0-4.47,0L75,65.07,60.21,50.29a3.17,3.17,0,0,0-4.47,0l-3.87,3.87h0l-1.59,1.58a3.18,3.18,0,0,0,0,4.47L65.07,75,57.3,82.77a11.35,11.35,0,0,0-2.72,4.41L50.46,99.54l12.36-4.12a11.35,11.35,0,0,0,4.41-2.72L98,61.89A3.17,3.17,0,0,0,98,57.42ZM57.16,51.7a1.16,1.16,0,0,1,1.64,0L73.59,66.49,71,69.1l-2.09,2.08L53.29,55.57ZM51.7,57.16l.17-.18L67.48,72.59l-1,1L51.7,58.8A1.16,1.16,0,0,1,51.7,57.16Zm44.92,3.32-30.8,30.8a9.38,9.38,0,0,1-3.63,2.24l-8.57,2.86,2.86-8.57a9.38,9.38,0,0,1,2.24-3.63L72.18,70.72l4.23-4.23h0L89.52,53.38a1.18,1.18,0,0,1,.82-.34,1.17,1.17,0,0,1,.82.34l5.46,5.46A1.16,1.16,0,0,1,96.62,60.48Z"/><path class="cls-1" d="M99.71,89.79,85.54,75.62l-6.1,6.1h0l-3.82,3.82L89.79,99.71a3.12,3.12,0,0,0,2.23.93,3.16,3.16,0,0,0,2.24-.93l.17-.17,5.28-5.28A3.17,3.17,0,0,0,99.71,89.79ZM92.84,98.3a1.16,1.16,0,0,1-1.64,0L78.44,85.54l1-1L93,98.13Zm5.46-5.45-3.87,3.86L80.85,83.13l4.69-4.69L98.3,91.2A1.18,1.18,0,0,1,98.3,92.85Z"/><rect class="cls-2" width="150" height="150"/></g></g></svg>