<svg xmlns="http://www.w3.org/2000/svg" viewBox="0 0 150 150"><defs><style>.cls-1{opacity:0.08;}.cls-2{fill:#fff;}.cls-3{opacity:0.23;}.cls-4{opacity:0.35;}.cls-5{opacity:0.54;}.cls-6{fill:none;}</style></defs><title>m3</title><g id="Слой_2" data-name="Слой 2"><g id="Слой_2-2" data-name="Слой 2"><g class="cls-1"><path class="cls-2" d="M75.69,43.4l3.16,30.73v.1l0,.1A3,3,0,0,1,79,75a3.26,3.26,0,0,1-3.26,3.26,4.17,4.17,0,0,1-2.34-.78,3.9,3.9,0,0,1-.86-3.15l0-.1v-.1L75.69,43.4m0-19.53L70.54,73.92A5.92,5.92,0,0,0,72,79a6.34,6.34,0,0,0,3.73,1.31A5.26,5.26,0,0,0,81,75a5.49,5.49,0,0,0-.11-1.08l-5.15-50Z"/></g><g class="cls-3"><path class="cls-2" d="M81.18,43.88,79,74.69v.2a3,3,0,0,1,0,.67,3.24,3.24,0,0,1-3.21,2.7A4,4,0,0,1,73,77a3.82,3.82,0,0,1-.3-3.26l0-.09,0-.1,8.46-29.71m3.39-19.23L70.8,73a5.91,5.91,0,0,0,.53,5.2,6.06,6.06,0,0,0,4.36,2,5.27,5.27,0,0,0,5.18-4.35A4.91,4.91,0,0,0,81,74.83l3.62-50.18Z"/></g><g class="cls-4"><path class="cls-2" d="M86.5,45.3,79,75.26l0,.1v.1a3.63,3.63,0,0,1-.16.65,3.28,3.28,0,0,1-3.07,2.15,3.81,3.81,0,0,1-3-1.73,3.87,3.87,0,0,1,.27-3.26l.06-.08,0-.09L86.5,45.3M93.17,27l-22,45.26a5.93,5.93,0,0,0-.38,5.21,5.82,5.82,0,0,0,4.86,2.83,5.28,5.28,0,0,0,5-3.46,5.75,5.75,0,0,0,.26-1L93.17,27Z"/></g><g class="cls-5"><path class="cls-2" d="M91.49,47.63,78.86,75.82l0,.1,0,.09a3.42,3.42,0,0,1-.27.62,3.29,3.29,0,0,1-2.84,1.63A3.67,3.67,0,0,1,72.42,76a3.87,3.87,0,0,1,.84-3.16l.06-.08.06-.08,18.11-25m9.76-16.91L71.76,71.49a5.94,5.94,0,0,0-1.28,5.06,5.7,5.7,0,0,0,5.2,3.71,5.27,5.27,0,0,0,4.57-2.63,5.44,5.44,0,0,0,.44-1l20.56-45.92Z"/></g><path class="cls-2" d="M96,50.79,78.67,76.36l-.06.09,0,.09a3.58,3.58,0,0,1-.38.55,3.24,3.24,0,0,1-2.5,1.17A3.57,3.57,0,0,1,72.3,75.4a3.84,3.84,0,0,1,1.37-3l.08-.06.07-.07L96,50.79m12.55-15-36.12,35a5.94,5.94,0,0,0-2.14,4.77,5.6,5.6,0,0,0,5.4,4.63,5.25,5.25,0,0,0,4-1.88,4.92,4.92,0,0,0,.61-.9l28.22-41.65Z"/><rect class="cls-6" width="150" height="150"/></g></g></svg>