<svg xmlns="http://www.w3.org/2000/svg" viewBox="0 0 150 150"><defs><style>.cls-1{fill:#fff;}.cls-2{opacity:0.6;}.cls-3{opacity:0.17;}.cls-4{fill:none;}</style></defs><title>m4</title><g id="Слой_2" data-name="Слой 2"><g id="Слой_2-2" data-name="Слой 2"><path class="cls-1" d="M75,102.36A18.35,18.35,0,0,1,56.67,84V66.33a18.33,18.33,0,0,1,36.66,0V84A18.35,18.35,0,0,1,75,102.36ZM75,50A16.35,16.35,0,0,0,58.67,66.33V84a16.33,16.33,0,0,0,32.66,0V66.33A16.35,16.35,0,0,0,75,50Z"/><path class="cls-1" d="M75,72.31a6,6,0,1,1,6-6A6,6,0,0,1,75,72.31Zm0-10a4,4,0,1,0,4,4A4,4,0,0,0,75,62.36Z"/><g class="cls-2"><path class="cls-1" d="M75,75.29a6,6,0,1,1,6-6A6,6,0,0,1,75,75.29Zm0-10a4,4,0,1,0,4,4A4,4,0,0,0,75,65.33Z"/></g><g class="cls-3"><path class="cls-1" d="M75,78.27a6,6,0,1,1,6-6A6,6,0,0,1,75,78.27Zm0-10a4,4,0,1,0,4,4A4,4,0,0,0,75,68.31Z"/></g><path class="cls-1" d="M75,113.11a1,1,0,0,1-.7-.29l-4.94-4.9a1,1,0,0,1,1.41-1.42L75,110.7l4.23-4.2a1,1,0,0,1,1.41,1.42l-4.94,4.9A1,1,0,0,1,75,113.11Z"/><path class="cls-1" d="M79.93,43.79a1,1,0,0,1-.7-.29L75,39.3l-4.23,4.2a1,1,0,0,1-1.41-1.42l4.94-4.9a1,1,0,0,1,1.4,0l4.94,4.9a1,1,0,0,1,0,1.41A1,1,0,0,1,79.93,43.79Z"/><rect class="cls-4" width="150" height="150"/></g></g></svg>