<svg xmlns="http://www.w3.org/2000/svg" viewBox="0 0 150 150"><defs><style>.cls-1{fill:#fff;}.cls-2{fill:none;}</style></defs><title>m5</title><g id="Слой_2" data-name="Слой 2"><g id="Слой_2-2" data-name="Слой 2"><path class="cls-1" d="M56.55,94.45a1,1,0,0,1-.7-.3L37.4,75.71a1,1,0,0,1,0-1.42L55.85,55.85a1,1,0,0,1,1.41,1.41L39.52,75,57.26,92.74a1,1,0,0,1-.71,1.71Z"/><path class="cls-1" d="M93.45,94.45a1,1,0,0,1-.71-1.71L110.48,75,92.74,57.26a1,1,0,1,1,1.41-1.41L112.6,74.29a1,1,0,0,1,0,1.42L94.15,94.15A1,1,0,0,1,93.45,94.45Z"/><path class="cls-1" d="M65.78,94.45a1,1,0,0,1-.45-.11A1,1,0,0,1,64.88,93L83.33,56.11a1,1,0,1,1,1.79.89L66.67,93.89A1,1,0,0,1,65.78,94.45Z"/><rect class="cls-2" width="150" height="150"/></g></g></svg>