<svg xmlns="http://www.w3.org/2000/svg" viewBox="0 0 250 250"><defs><style>.cls-1{fill:#1e1e1e;}</style></defs><title>web_icons</title><g id="icons"><g id="border_circle"><path class="cls-1" d="M125,7a118,118,0,0,1,83.44,201.44A118,118,0,0,1,41.56,41.56,117.22,117.22,0,0,1,125,7m0-7A125,125,0,1,0,250,125,125,125,0,0,0,125,0Z"/></g><g id="plus"><path class="cls-1" d="M158.36,148.21,137.14,127l21.22-21.21a10,10,0,1,0-14.15-14.15L123,112.86,101.79,91.64a10,10,0,0,0-14.15,14.15L108.86,127,87.64,148.21a10,10,0,1,0,14.15,14.15L123,141.14l21.21,21.22a10,10,0,1,0,14.15-14.15Z"/></g></g></svg>