<svg xmlns="http://www.w3.org/2000/svg" viewBox="0 0 250 250"><defs><style>.cls-1{fill:#091c54;}</style></defs><title>web_icons</title><g id="icons"><g id="border_circle"><path class="cls-1" d="M125,7a118,118,0,0,1,83.44,201.44A118,118,0,0,1,41.56,41.56,117.22,117.22,0,0,1,125,7m0-7A125,125,0,1,0,250,125,125,125,0,0,0,125,0Z"/></g><path class="cls-1" d="M125,74.5c-19.22.29-34,17-32.92,36.19,1.5,27.57,25.67,43.16,32,46.75a3,3,0,0,0,3,0c6.5-3.73,32-20.21,32-49.44A33.51,33.51,0,0,0,125,74.5Zm1.88,46.83a13.4,13.4,0,1,1,12-12A13.4,13.4,0,0,1,126.87,121.33Z"/><path class="cls-1" d="M145.81,145.85l0,0a1.32,1.32,0,0,0,.46,2.12q.9.39,1.74.81c5.29,2.65,8.33,6.09,8.33,9.45s-3,6.8-8.33,9.45c-6,3-14,4.62-22.49,4.62S109,170.68,103,167.7c-5.29-2.65-8.33-6.09-8.33-9.45s3-6.8,8.33-9.45q.84-.42,1.74-.81a1.32,1.32,0,0,0,.46-2.12l0,0a1.33,1.33,0,0,0-1.48-.32C96.54,148.6,92,153.16,92,158.25,92,167.5,107,175,125.5,175s33.5-7.5,33.5-16.75c0-5.09-4.55-9.65-11.72-12.72A1.31,1.31,0,0,0,145.81,145.85Z"/></g></svg>