<svg xmlns="http://www.w3.org/2000/svg" xmlns:xlink="http://www.w3.org/1999/xlink" viewBox="0 0 250 250"><defs><style>.cls-1{fill:url(#Безымянный_градиент_75);}.cls-2{fill:url(#Безымянный_градиент_77);}.cls-3{fill:url(#Безымянный_градиент_77-2);}</style><linearGradient id="Безымянный_градиент_75" x1="225.28" y1="200.76" x2="20.78" y2="46.26" gradientUnits="userSpaceOnUse"><stop offset="0" stop-color="#26005e"/><stop offset="0.13" stop-color="#30005e"/><stop offset="0.34" stop-color="#4c005f"/><stop offset="0.62" stop-color="#790060"/><stop offset="0.95" stop-color="#b60062"/><stop offset="1" stop-color="#c00062"/></linearGradient><linearGradient id="Безымянный_градиент_77" x1="94.83" y1="80.96" x2="170.83" y2="154.96" gradientUnits="userSpaceOnUse"><stop offset="0" stop-color="#c00062"/><stop offset="0.05" stop-color="#b60062"/><stop offset="0.38" stop-color="#790060"/><stop offset="0.66" stop-color="#4c005f"/><stop offset="0.87" stop-color="#30005e"/><stop offset="1" stop-color="#26005e"/></linearGradient><linearGradient id="Безымянный_градиент_77-2" x1="87.5" y1="88.49" x2="163.5" y2="162.49" xlink:href="#Безымянный_градиент_77"/></defs><title>perc</title><g id="icons"><path class="cls-1" d="M125,7a118,118,0,0,1,83.44,201.44A118,118,0,0,1,41.56,41.56,117.22,117.22,0,0,1,125,7m0-7A125,125,0,1,0,250,125,125,125,0,0,0,125,0Z"/><circle class="cls-2" cx="124.99" cy="110.33" r="23.25"/><path class="cls-3" d="M125,75a50,50,0,1,0,38.87,81.44h0A50,50,0,0,0,125,75Zm21.44,51.67a27,27,0,0,1-42.89,0,44,44,0,0,0-18.72,20.75A46,46,0,1,1,171,125a45.41,45.41,0,0,1-5.83,22.43A44,44,0,0,0,146.44,126.67Z"/></g></svg>