<?xml version="1.0" encoding="UTF-8"?>
<!DOCTYPE svg PUBLIC "-//W3C//DTD SVG 1.1//EN" "http://www.w3.org/Graphics/SVG/1.1/DTD/svg11.dtd">
<!-- Creator: CorelDRAW X8 -->
<svg xmlns="http://www.w3.org/2000/svg" xml:space="preserve" width="207.221mm" height="108.615mm" version="1.1" style="shape-rendering:geometricPrecision; text-rendering:geometricPrecision; image-rendering:optimizeQuality; fill-rule:evenodd; clip-rule:evenodd"
viewBox="0 0 10869967 5697515"
 xmlns:xlink="http://www.w3.org/1999/xlink">
 <defs>
  <style type="text/css">
   <![CDATA[
    .fil0 {fill:url(#id0)}
   ]]>
  </style>
  <linearGradient id="id0" gradientUnits="userSpaceOnUse" x1="28808.8" y1="10847.9" x2="1.11135e+07" y2="5.24785e+06">
   <stop offset="0" style="stop-opacity:1; stop-color:#0006FF"/>
   <stop offset="1" style="stop-opacity:1; stop-color:#00DEFF"/>
  </linearGradient>
 </defs>
 <g id="Слой_x0020_1">
  <metadata id="CorelCorpID_0Corel-Layer"/>
  <path class="fil0" d="M9423243 2848760l-1563627 -1042420c-93770,-62517 -145628,-159413 -145628,-272109l0 -353417c0,-123775 63593,-229935 172722,-288340 109124,-58399 232726,-52429 335712,16230l2501917 1667941c93770,62517 145628,159413 145628,272110 0,112696 -51858,209593 -145628,272104l-2501917 1667946c-102986,68655 -226588,74629 -335712,16225 -109129,-58405 -172722,-164560 -172722,-288335l0 -353421c0,-112697 51858,-209593 145628,-272105l1563627 -1042414 0 5zm-7976514 0l1563627 1042414c93765,62512 145623,159409 145623,272105l0 353422c0,123775 -63593,229930 -172717,288334 -109129,58404 -232731,52430 -335718,-16225l-2501916 -1667945c-93770,-62512 -145628,-159409 -145628,-272105 0,-112696 51858,-209593 145628,-272110l2501916 -1667940c102987,-68660 226589,-74630 335718,-16230 109124,58404 172717,164564 172717,288339l0 353417c0,112696 -51858,209593 -145623,272110l-1563627 1042419 0 -5zm2926993 2457591l193321 -966359 815369 -4077099c30886,-154425 163190,-262893 320674,-262893l472491 0c101381,0 188637,41293 252911,119694 64269,78401 87659,172066 67773,271475l-193368 966359 -815323 4077093c-30880,154425 -163195,262894 -320678,262894l-472492 0c-101381,0 -188636,-41299 -252905,-119699 -64275,-78396 -87659,-172056 -67773,-271465z"/>
 </g>
</svg>
