<svg xmlns="http://www.w3.org/2000/svg" xmlns:xlink="http://www.w3.org/1999/xlink" viewBox="0 0 250 250"><defs><style>.cls-1{fill:url(#Безымянный_градиент_75);}.cls-2{fill:url(#Безымянный_градиент_75-2);}.cls-3{fill:url(#Безымянный_градиент_75-3);}.cls-4{fill:url(#Безымянный_градиент_75-4);}.cls-5{fill:url(#Безымянный_градиент_75-5);}</style><linearGradient id="Безымянный_градиент_75" x1="225.28" y1="200.76" x2="20.78" y2="46.26" gradientUnits="userSpaceOnUse"><stop offset="0" stop-color="#26005e"/><stop offset="0.13" stop-color="#30005e"/><stop offset="0.34" stop-color="#4c005f"/><stop offset="0.62" stop-color="#790060"/><stop offset="0.95" stop-color="#b60062"/><stop offset="1" stop-color="#c00062"/></linearGradient><linearGradient id="Безымянный_градиент_75-2" x1="177.44" y1="175.54" x2="83.94" y2="86.54" xlink:href="#Безымянный_градиент_75"/><linearGradient id="Безымянный_градиент_75-3" x1="176.42" y1="176.61" x2="82.92" y2="87.61" xlink:href="#Безымянный_градиент_75"/><linearGradient id="Безымянный_градиент_75-4" x1="196.08" y1="155.96" x2="102.58" y2="66.96" xlink:href="#Безымянный_градиент_75"/><linearGradient id="Безымянный_градиент_75-5" x1="194.07" y1="158.07" x2="100.57" y2="69.07" xlink:href="#Безымянный_градиент_75"/></defs><title>sea</title><g id="icons"><path class="cls-1" d="M125,7a118,118,0,0,1,83.44,201.44A118,118,0,0,1,41.56,41.56,117.22,117.22,0,0,1,125,7m0-7A125,125,0,1,0,250,125,125,125,0,0,0,125,0Z"/><path class="cls-2" d="M115.27,83.23A33.16,33.16,0,1,1,82.11,116.4a33.2,33.2,0,0,1,33.16-33.17m0-6.31a39.48,39.48,0,1,0,39.48,39.48,39.48,39.48,0,0,0-39.48-39.48Z"/><path class="cls-3" d="M172.38,165.13l-22.64-22.64a1.88,1.88,0,0,0-2.77.13,39.35,39.35,0,0,1-5.47,5.48,1.86,1.86,0,0,0-.14,2.76l22.82,22.82a5.92,5.92,0,0,0,8.25.13A6.12,6.12,0,0,0,172.38,165.13Z"/><path class="cls-4" d="M139.12,103.77a2,2,0,0,1-1.69-1l-.08-.14a2,2,0,0,1,.33-2.6,2,2,0,0,1,3,.45l.11.18a2,2,0,0,1-.27,2.5A2,2,0,0,1,139.12,103.77Z"/><path class="cls-5" d="M132.93,96.57a1.92,1.92,0,0,1-1.25-.46,26.12,26.12,0,0,0-16.47-6,2.05,2.05,0,0,1-2.08-1.63,2,2,0,0,1,1.94-2.32A30,30,0,0,1,134.14,93a2,2,0,0,1,.53,2.5A2,2,0,0,1,132.93,96.57Z"/></g></svg>