<svg xmlns="http://www.w3.org/2000/svg" viewBox="0 0 654.13 104.83"><defs><style>.cls-1{fill:#fff;}</style></defs><title>Ресурс 34</title><g id="Слой_2" data-name="Слой 2"><g id="Слой_2-2" data-name="Слой 2"><path class="cls-1" d="M327.06,3c87.21,0,169.18,5.44,230.8,15.31,29.83,4.79,53.22,10.34,69.5,16.51,20.68,7.83,23.77,14.39,23.77,17.59S648,62.18,627.36,70c-16.28,6.17-39.67,11.72-69.5,16.5-61.62,9.88-143.59,15.32-230.8,15.32S157.89,96.39,96.27,86.51C66.43,81.73,43.05,76.18,26.77,70,6.09,62.18,3,55.62,3,52.41s3.09-9.76,23.77-17.59c16.28-6.17,39.66-11.72,69.5-16.51C157.89,8.44,239.86,3,327.06,3m0-3C146.43,0,0,23.47,0,52.41s146.43,52.42,327.06,52.42S654.13,81.36,654.13,52.41,507.7,0,327.06,0Z"/></g></g></svg>